<?xml version="1.0" encoding="UTF-8" standalone="no"?>
<!DOCTYPE svg PUBLIC "-//W3C//DTD SVG 1.1//EN"
 "http://www.w3.org/Graphics/SVG/1.1/DTD/svg11.dtd">
<!-- Generated by graphviz version 14.1.4 (0)
 -->
<!-- Title: fnirsi_dps150 Pages: 1 -->
<svg width="958pt" height="583pt"
 viewBox="0.00 0.00 958.00 583.00" xmlns="http://www.w3.org/2000/svg" xmlns:xlink="http://www.w3.org/1999/xlink">
<g id="graph0" class="graph" transform="scale(1 1) rotate(0) translate(36 547)">
<title>fnirsi_dps150</title>
<polygon fill="white" stroke="none" points="-36,36 -36,-547 922.38,-547 922.38,36 -36,36"/>
<!-- frame -->
<g id="node1" class="node">
<title>frame</title>
<polygon fill="#37474f" stroke="none" points="226.12,-490 226.12,-511 634.12,-511 634.12,-490 226.12,-490"/>
<polygon fill="none" stroke="black" points="226.12,-490 226.12,-511 634.12,-511 634.12,-490 226.12,-490"/>
<text xml:space="preserve" text-anchor="start" x="392.62" y="-495.7" font-family="Helvetica Neue,Helvetica,Arial,sans-serif" font-weight="bold" font-size="14.00" fill="white">Wire Frame</text>
<polygon fill="none" stroke="black" points="226.12,-428 226.12,-490 303.38,-490 303.38,-428 226.12,-428"/>
<text xml:space="preserve" text-anchor="start" x="253.12" y="-467.7" font-family="Helvetica Neue,Helvetica,Arial,sans-serif" font-weight="bold" font-size="14.00">DIR</text>
<text xml:space="preserve" text-anchor="start" x="229.12" y="-453.7" font-family="Helvetica Neue,Helvetica,Arial,sans-serif" font-size="14.00">0xF0 / 0xF1</text>
<text xml:space="preserve" text-anchor="start" x="254.62" y="-439.7" font-family="Helvetica Neue,Helvetica,Arial,sans-serif" font-size="14.00">1 B</text>
<polygon fill="none" stroke="black" points="303.38,-428 303.38,-490 382.88,-490 382.88,-428 303.38,-428"/>
<text xml:space="preserve" text-anchor="start" x="321" y="-474.7" font-family="Helvetica Neue,Helvetica,Arial,sans-serif" font-weight="bold" font-size="14.00">START</text>
<text xml:space="preserve" text-anchor="start" x="306.75" y="-460.7" font-family="Helvetica Neue,Helvetica,Arial,sans-serif" font-size="14.00">0xA1 / 0xB0</text>
<text xml:space="preserve" text-anchor="start" x="306.38" y="-446.7" font-family="Helvetica Neue,Helvetica,Arial,sans-serif" font-size="14.00">0xB1 / 0xC1</text>
<text xml:space="preserve" text-anchor="start" x="333" y="-432.7" font-family="Helvetica Neue,Helvetica,Arial,sans-serif" font-size="14.00">1 B</text>
<polygon fill="none" stroke="black" points="382.88,-428 382.88,-490 450.38,-490 450.38,-428 382.88,-428"/>
<text xml:space="preserve" text-anchor="start" x="400.88" y="-467.7" font-family="Helvetica Neue,Helvetica,Arial,sans-serif" font-weight="bold" font-size="14.00">CMD</text>
<text xml:space="preserve" text-anchor="start" x="385.88" y="-453.7" font-family="Helvetica Neue,Helvetica,Arial,sans-serif" font-size="14.00">see tables</text>
<text xml:space="preserve" text-anchor="start" x="406.5" y="-439.7" font-family="Helvetica Neue,Helvetica,Arial,sans-serif" font-size="14.00">1 B</text>
<polygon fill="none" stroke="black" points="450.38,-428 450.38,-490 483.38,-490 483.38,-428 450.38,-428"/>
<text xml:space="preserve" text-anchor="start" x="453.38" y="-467.7" font-family="Helvetica Neue,Helvetica,Arial,sans-serif" font-weight="bold" font-size="14.00">LEN</text>
<text xml:space="preserve" text-anchor="start" x="462" y="-453.7" font-family="Helvetica Neue,Helvetica,Arial,sans-serif" font-size="14.00">N</text>
<text xml:space="preserve" text-anchor="start" x="456.75" y="-439.7" font-family="Helvetica Neue,Helvetica,Arial,sans-serif" font-size="14.00">1 B</text>
<polygon fill="none" stroke="black" points="483.38,-428 483.38,-490 536.62,-490 536.62,-428 483.38,-428"/>
<text xml:space="preserve" text-anchor="start" x="492" y="-467.7" font-family="Helvetica Neue,Helvetica,Arial,sans-serif" font-weight="bold" font-size="14.00">DATA</text>
<text xml:space="preserve" text-anchor="start" x="486.38" y="-453.7" font-family="Helvetica Neue,Helvetica,Arial,sans-serif" font-size="14.00">payload</text>
<text xml:space="preserve" text-anchor="start" x="498.75" y="-439.7" font-family="Helvetica Neue,Helvetica,Arial,sans-serif" font-size="14.00">N B</text>
<polygon fill="none" stroke="black" points="536.62,-428 536.62,-490 634.12,-490 634.12,-428 536.62,-428"/>
<text xml:space="preserve" text-anchor="start" x="555.38" y="-474.7" font-family="Helvetica Neue,Helvetica,Arial,sans-serif" font-weight="bold" font-size="14.00">CHKSUM</text>
<text xml:space="preserve" text-anchor="start" x="550.12" y="-460.7" font-family="Helvetica Neue,Helvetica,Arial,sans-serif" font-size="14.00">(CMD+LEN</text>
<text xml:space="preserve" text-anchor="start" x="539.62" y="-446.7" font-family="Helvetica Neue,Helvetica,Arial,sans-serif" font-size="14.00">+ΣDATA)%256</text>
<text xml:space="preserve" text-anchor="start" x="575.25" y="-432.7" font-family="Helvetica Neue,Helvetica,Arial,sans-serif" font-size="14.00">1 B</text>
</g>
<!-- tx -->
<g id="node2" class="node">
<title>tx</title>
<polygon fill="#1565c0" stroke="none" points="0,-279.75 0,-300.75 242.25,-300.75 242.25,-279.75 0,-279.75"/>
<polygon fill="none" stroke="black" points="0,-279.75 0,-300.75 242.25,-300.75 242.25,-279.75 0,-279.75"/>
<text xml:space="preserve" text-anchor="start" x="21" y="-285.45" font-family="Helvetica Neue,Helvetica,Arial,sans-serif" font-weight="bold" font-size="14.00" fill="white">TX — host→device (DIR=0xF1)</text>
<polygon fill="none" stroke="black" points="0,-258.75 0,-279.75 39,-279.75 39,-258.75 0,-258.75"/>
<text xml:space="preserve" text-anchor="start" x="3.75" y="-264.45" font-family="Helvetica Neue,Helvetica,Arial,sans-serif" font-weight="bold" font-size="14.00" fill="white">CMD</text>
<polygon fill="none" stroke="black" points="39,-258.75 39,-279.75 152.25,-279.75 152.25,-258.75 39,-258.75"/>
<text xml:space="preserve" text-anchor="start" x="76.5" y="-264.45" font-family="Helvetica Neue,Helvetica,Arial,sans-serif" font-weight="bold" font-size="14.00" fill="white">Name</text>
<polygon fill="none" stroke="black" points="152.25,-258.75 152.25,-279.75 242.25,-279.75 242.25,-258.75 152.25,-258.75"/>
<text xml:space="preserve" text-anchor="start" x="171.38" y="-264.45" font-family="Helvetica Neue,Helvetica,Arial,sans-serif" font-weight="bold" font-size="14.00" fill="white">Payload</text>
<polygon fill="none" stroke="black" points="0,-236.25 0,-258.75 39,-258.75 39,-236.25 0,-236.25"/>
<text xml:space="preserve" text-anchor="start" x="3" y="-243.45" font-family="Courier New,Courier,monospace" font-weight="bold" font-size="14.00">0x00</text>
<polygon fill="none" stroke="black" points="39,-236.25 39,-258.75 152.25,-258.75 152.25,-236.25 39,-236.25"/>
<text xml:space="preserve" text-anchor="start" x="42" y="-244.5" font-family="Helvetica Neue,Helvetica,Arial,sans-serif" font-size="14.00">connect_ctrl</text>
<polygon fill="none" stroke="black" points="152.25,-236.25 152.25,-258.75 242.25,-258.75 242.25,-236.25 152.25,-236.25"/>
<text xml:space="preserve" text-anchor="start" x="155.25" y="-243.45" font-family="Helvetica Neue,Helvetica,Arial,sans-serif" font-style="italic" font-size="14.00">connect_state</text>
<polygon fill="none" stroke="black" points="0,-213.75 0,-236.25 39,-236.25 39,-213.75 0,-213.75"/>
<text xml:space="preserve" text-anchor="start" x="3" y="-220.95" font-family="Courier New,Courier,monospace" font-weight="bold" font-size="14.00">0xC1</text>
<polygon fill="none" stroke="black" points="39,-213.75 39,-236.25 152.25,-236.25 152.25,-213.75 39,-213.75"/>
<text xml:space="preserve" text-anchor="start" x="42" y="-222" font-family="Helvetica Neue,Helvetica,Arial,sans-serif" font-size="14.00">set_voltage</text>
<polygon fill="none" stroke="black" points="152.25,-213.75 152.25,-236.25 242.25,-236.25 242.25,-213.75 152.25,-213.75"/>
<text xml:space="preserve" text-anchor="start" x="155.25" y="-220.95" font-family="Helvetica Neue,Helvetica,Arial,sans-serif" font-style="italic" font-size="14.00">f32 LE</text>
<polygon fill="none" stroke="black" points="0,-191.25 0,-213.75 39,-213.75 39,-191.25 0,-191.25"/>
<text xml:space="preserve" text-anchor="start" x="3" y="-198.45" font-family="Courier New,Courier,monospace" font-weight="bold" font-size="14.00">0xC2</text>
<polygon fill="none" stroke="black" points="39,-191.25 39,-213.75 152.25,-213.75 152.25,-191.25 39,-191.25"/>
<text xml:space="preserve" text-anchor="start" x="42" y="-199.5" font-family="Helvetica Neue,Helvetica,Arial,sans-serif" font-size="14.00">set_current</text>
<polygon fill="none" stroke="black" points="152.25,-191.25 152.25,-213.75 242.25,-213.75 242.25,-191.25 152.25,-191.25"/>
<text xml:space="preserve" text-anchor="start" x="155.25" y="-198.45" font-family="Helvetica Neue,Helvetica,Arial,sans-serif" font-style="italic" font-size="14.00">f32 LE</text>
<polygon fill="none" stroke="black" points="0,-168.75 0,-191.25 39,-191.25 39,-168.75 0,-168.75"/>
<text xml:space="preserve" text-anchor="start" x="3" y="-175.95" font-family="Courier New,Courier,monospace" font-weight="bold" font-size="14.00">0xDB</text>
<polygon fill="none" stroke="black" points="39,-168.75 39,-191.25 152.25,-191.25 152.25,-168.75 39,-168.75"/>
<text xml:space="preserve" text-anchor="start" x="42" y="-177" font-family="Helvetica Neue,Helvetica,Arial,sans-serif" font-size="14.00">set_output</text>
<polygon fill="none" stroke="black" points="152.25,-168.75 152.25,-191.25 242.25,-191.25 242.25,-168.75 152.25,-168.75"/>
<text xml:space="preserve" text-anchor="start" x="155.25" y="-175.95" font-family="Helvetica Neue,Helvetica,Arial,sans-serif" font-style="italic" font-size="14.00">output_state</text>
<polygon fill="none" stroke="black" points="0,-146.25 0,-168.75 39,-168.75 39,-146.25 0,-146.25"/>
<text xml:space="preserve" text-anchor="start" x="3" y="-153.45" font-family="Courier New,Courier,monospace" font-weight="bold" font-size="14.00">0xDE</text>
<polygon fill="none" stroke="black" points="39,-146.25 39,-168.75 152.25,-168.75 152.25,-146.25 39,-146.25"/>
<text xml:space="preserve" text-anchor="start" x="42" y="-154.5" font-family="Helvetica Neue,Helvetica,Arial,sans-serif" font-size="14.00">get_device_name</text>
<polygon fill="none" stroke="black" points="152.25,-146.25 152.25,-168.75 242.25,-168.75 242.25,-146.25 152.25,-146.25"/>
<text xml:space="preserve" text-anchor="start" x="155.25" y="-153.45" font-family="Helvetica Neue,Helvetica,Arial,sans-serif" font-style="italic" font-size="14.00">query (0x00)</text>
<polygon fill="none" stroke="black" points="0,-123.75 0,-146.25 39,-146.25 39,-123.75 0,-123.75"/>
<text xml:space="preserve" text-anchor="start" x="3" y="-130.95" font-family="Courier New,Courier,monospace" font-weight="bold" font-size="14.00">0xDF</text>
<polygon fill="none" stroke="black" points="39,-123.75 39,-146.25 152.25,-146.25 152.25,-123.75 39,-123.75"/>
<text xml:space="preserve" text-anchor="start" x="42" y="-132" font-family="Helvetica Neue,Helvetica,Arial,sans-serif" font-size="14.00">get_fw_version</text>
<polygon fill="none" stroke="black" points="152.25,-123.75 152.25,-146.25 242.25,-146.25 242.25,-123.75 152.25,-123.75"/>
<text xml:space="preserve" text-anchor="start" x="155.25" y="-130.95" font-family="Helvetica Neue,Helvetica,Arial,sans-serif" font-style="italic" font-size="14.00">query (0x00)</text>
<polygon fill="none" stroke="black" points="0,-101.25 0,-123.75 39,-123.75 39,-101.25 0,-101.25"/>
<text xml:space="preserve" text-anchor="start" x="3" y="-108.45" font-family="Courier New,Courier,monospace" font-weight="bold" font-size="14.00">0xE0</text>
<polygon fill="none" stroke="black" points="39,-101.25 39,-123.75 152.25,-123.75 152.25,-101.25 39,-101.25"/>
<text xml:space="preserve" text-anchor="start" x="42" y="-109.5" font-family="Helvetica Neue,Helvetica,Arial,sans-serif" font-size="14.00">get_hw_version</text>
<polygon fill="none" stroke="black" points="152.25,-101.25 152.25,-123.75 242.25,-123.75 242.25,-101.25 152.25,-101.25"/>
<text xml:space="preserve" text-anchor="start" x="155.25" y="-108.45" font-family="Helvetica Neue,Helvetica,Arial,sans-serif" font-style="italic" font-size="14.00">query (0x00)</text>
<polygon fill="none" stroke="black" points="0,-78.75 0,-101.25 39,-101.25 39,-78.75 0,-78.75"/>
<text xml:space="preserve" text-anchor="start" x="3" y="-85.95" font-family="Courier New,Courier,monospace" font-weight="bold" font-size="14.00">0xE1</text>
<polygon fill="none" stroke="black" points="39,-78.75 39,-101.25 152.25,-101.25 152.25,-78.75 39,-78.75"/>
<text xml:space="preserve" text-anchor="start" x="42" y="-87" font-family="Helvetica Neue,Helvetica,Arial,sans-serif" font-size="14.00">ready_status</text>
<polygon fill="none" stroke="black" points="152.25,-78.75 152.25,-101.25 242.25,-101.25 242.25,-78.75 152.25,-78.75"/>
<text xml:space="preserve" text-anchor="start" x="155.25" y="-85.95" font-family="Helvetica Neue,Helvetica,Arial,sans-serif" font-style="italic" font-size="14.00">query (0x00)</text>
<polygon fill="none" stroke="black" points="0,-56.25 0,-78.75 39,-78.75 39,-56.25 0,-56.25"/>
<text xml:space="preserve" text-anchor="start" x="3" y="-63.45" font-family="Courier New,Courier,monospace" font-weight="bold" font-size="14.00">0xFF</text>
<polygon fill="none" stroke="black" points="39,-56.25 39,-78.75 152.25,-78.75 152.25,-56.25 39,-56.25"/>
<text xml:space="preserve" text-anchor="start" x="42" y="-64.5" font-family="Helvetica Neue,Helvetica,Arial,sans-serif" font-size="14.00">get_full_status</text>
<polygon fill="none" stroke="black" points="152.25,-56.25 152.25,-78.75 242.25,-78.75 242.25,-56.25 152.25,-56.25"/>
<text xml:space="preserve" text-anchor="start" x="155.25" y="-63.45" font-family="Helvetica Neue,Helvetica,Arial,sans-serif" font-style="italic" font-size="14.00">query (0x00)</text>
</g>
<!-- frame&#45;&gt;tx -->
<g id="edge1" class="edge">
<title>frame&#45;&gt;tx</title>
<path fill="none" stroke="#1565c0" d="M364.6,-428.09C334.74,-408.31 299.75,-383.15 271.12,-357 254.87,-342.15 238.73,-325.56 223.4,-308.66"/>
<polygon fill="#1565c0" stroke="#1565c0" points="226.23,-306.57 216.94,-301.47 221.02,-311.25 226.23,-306.57"/>
<text xml:space="preserve" text-anchor="middle" x="354.62" y="-393.5" font-family="Helvetica Neue,Helvetica,Arial,sans-serif" font-size="10.00" fill="#1565c0">DIR=0xF1</text>
<text xml:space="preserve" text-anchor="middle" x="354.62" y="-383" font-family="Helvetica Neue,Helvetica,Arial,sans-serif" font-size="10.00" fill="#1565c0">START≠0xB0</text>
</g>
<!-- rx -->
<g id="node3" class="node">
<title>rx</title>
<polygon fill="#1b5e20" stroke="none" points="300,-336 300,-357 560.25,-357 560.25,-336 300,-336"/>
<polygon fill="none" stroke="black" points="300,-336 300,-357 560.25,-357 560.25,-336 300,-336"/>
<text xml:space="preserve" text-anchor="start" x="329.25" y="-341.7" font-family="Helvetica Neue,Helvetica,Arial,sans-serif" font-weight="bold" font-size="14.00" fill="white">RX — device→host (DIR=0xF0)</text>
<polygon fill="none" stroke="black" points="300,-315 300,-336 339,-336 339,-315 300,-315"/>
<text xml:space="preserve" text-anchor="start" x="303.75" y="-320.7" font-family="Helvetica Neue,Helvetica,Arial,sans-serif" font-weight="bold" font-size="14.00" fill="white">CMD</text>
<polygon fill="none" stroke="black" points="339,-315 339,-336 458.25,-336 458.25,-315 339,-315"/>
<text xml:space="preserve" text-anchor="start" x="379.5" y="-320.7" font-family="Helvetica Neue,Helvetica,Arial,sans-serif" font-weight="bold" font-size="14.00" fill="white">Name</text>
<polygon fill="none" stroke="black" points="458.25,-315 458.25,-336 560.25,-336 560.25,-315 458.25,-315"/>
<text xml:space="preserve" text-anchor="start" x="483.38" y="-320.7" font-family="Helvetica Neue,Helvetica,Arial,sans-serif" font-weight="bold" font-size="14.00" fill="white">Payload</text>
<polygon fill="none" stroke="black" points="300,-292.5 300,-315 339,-315 339,-292.5 300,-292.5"/>
<text xml:space="preserve" text-anchor="start" x="303" y="-299.7" font-family="Courier New,Courier,monospace" font-weight="bold" font-size="14.00">0x00</text>
<polygon fill="none" stroke="black" points="339,-292.5 339,-315 458.25,-315 458.25,-292.5 339,-292.5"/>
<text xml:space="preserve" text-anchor="start" x="342" y="-300.75" font-family="Helvetica Neue,Helvetica,Arial,sans-serif" font-size="14.00">connect_ctrl</text>
<polygon fill="none" stroke="black" points="458.25,-292.5 458.25,-315 560.25,-315 560.25,-292.5 458.25,-292.5"/>
<text xml:space="preserve" text-anchor="start" x="461.25" y="-299.7" font-family="Helvetica Neue,Helvetica,Arial,sans-serif" font-style="italic" font-size="14.00">connect_state</text>
<polygon fill="none" stroke="black" points="300,-270 300,-292.5 339,-292.5 339,-270 300,-270"/>
<text xml:space="preserve" text-anchor="start" x="303" y="-277.2" font-family="Courier New,Courier,monospace" font-weight="bold" font-size="14.00">0xC0</text>
<polygon fill="none" stroke="black" points="339,-270 339,-292.5 458.25,-292.5 458.25,-270 339,-270"/>
<text xml:space="preserve" text-anchor="start" x="342" y="-278.25" font-family="Helvetica Neue,Helvetica,Arial,sans-serif" font-size="14.00">push_vin_a</text>
<polygon fill="none" stroke="black" points="458.25,-270 458.25,-292.5 560.25,-292.5 560.25,-270 458.25,-270"/>
<text xml:space="preserve" text-anchor="start" x="461.25" y="-277.2" font-family="Helvetica Neue,Helvetica,Arial,sans-serif" font-style="italic" font-size="14.00">f32 LE</text>
<polygon fill="none" stroke="black" points="300,-247.5 300,-270 339,-270 339,-247.5 300,-247.5"/>
<text xml:space="preserve" text-anchor="start" x="303" y="-254.7" font-family="Courier New,Courier,monospace" font-weight="bold" font-size="14.00">0xC1</text>
<polygon fill="none" stroke="black" points="339,-247.5 339,-270 458.25,-270 458.25,-247.5 339,-247.5"/>
<text xml:space="preserve" text-anchor="start" x="342" y="-255.75" font-family="Helvetica Neue,Helvetica,Arial,sans-serif" font-size="14.00">set_voltage</text>
<polygon fill="none" stroke="black" points="458.25,-247.5 458.25,-270 560.25,-270 560.25,-247.5 458.25,-247.5"/>
<text xml:space="preserve" text-anchor="start" x="461.25" y="-254.7" font-family="Helvetica Neue,Helvetica,Arial,sans-serif" font-style="italic" font-size="14.00">f32 LE</text>
<polygon fill="none" stroke="black" points="300,-225 300,-247.5 339,-247.5 339,-225 300,-225"/>
<text xml:space="preserve" text-anchor="start" x="303" y="-232.2" font-family="Courier New,Courier,monospace" font-weight="bold" font-size="14.00">0xC2</text>
<polygon fill="none" stroke="black" points="339,-225 339,-247.5 458.25,-247.5 458.25,-225 339,-225"/>
<text xml:space="preserve" text-anchor="start" x="342" y="-233.25" font-family="Helvetica Neue,Helvetica,Arial,sans-serif" font-size="14.00">set_current</text>
<polygon fill="none" stroke="black" points="458.25,-225 458.25,-247.5 560.25,-247.5 560.25,-225 458.25,-225"/>
<text xml:space="preserve" text-anchor="start" x="461.25" y="-232.2" font-family="Helvetica Neue,Helvetica,Arial,sans-serif" font-style="italic" font-size="14.00">f32 LE</text>
<polygon fill="none" stroke="black" points="300,-202.5 300,-225 339,-225 339,-202.5 300,-202.5"/>
<text xml:space="preserve" text-anchor="start" x="303" y="-209.7" font-family="Courier New,Courier,monospace" font-weight="bold" font-size="14.00">0xC3</text>
<polygon fill="none" stroke="black" points="339,-202.5 339,-225 458.25,-225 458.25,-202.5 339,-202.5"/>
<text xml:space="preserve" text-anchor="start" x="342" y="-210.75" font-family="Helvetica Neue,Helvetica,Arial,sans-serif" font-size="14.00">push_output</text>
<polygon fill="none" stroke="black" points="458.25,-202.5 458.25,-225 560.25,-225 560.25,-202.5 458.25,-202.5"/>
<text xml:space="preserve" text-anchor="start" x="461.25" y="-209.7" font-family="Helvetica Neue,Helvetica,Arial,sans-serif" font-style="italic" font-size="14.00">vout · iout · pout</text>
<polygon fill="none" stroke="black" points="300,-180 300,-202.5 339,-202.5 339,-180 300,-180"/>
<text xml:space="preserve" text-anchor="start" x="303" y="-187.2" font-family="Courier New,Courier,monospace" font-weight="bold" font-size="14.00">0xC4</text>
<polygon fill="none" stroke="black" points="339,-180 339,-202.5 458.25,-202.5 458.25,-180 339,-180"/>
<text xml:space="preserve" text-anchor="start" x="342" y="-188.25" font-family="Helvetica Neue,Helvetica,Arial,sans-serif" font-size="14.00">push_vin_c</text>
<polygon fill="none" stroke="black" points="458.25,-180 458.25,-202.5 560.25,-202.5 560.25,-180 458.25,-180"/>
<text xml:space="preserve" text-anchor="start" x="461.25" y="-187.2" font-family="Helvetica Neue,Helvetica,Arial,sans-serif" font-style="italic" font-size="14.00">f32 LE</text>
<polygon fill="none" stroke="black" points="300,-157.5 300,-180 339,-180 339,-157.5 300,-157.5"/>
<text xml:space="preserve" text-anchor="start" x="303" y="-164.7" font-family="Courier New,Courier,monospace" font-weight="bold" font-size="14.00">0xDB</text>
<polygon fill="none" stroke="black" points="339,-157.5 339,-180 458.25,-180 458.25,-157.5 339,-157.5"/>
<text xml:space="preserve" text-anchor="start" x="342" y="-165.75" font-family="Helvetica Neue,Helvetica,Arial,sans-serif" font-size="14.00">set_output</text>
<polygon fill="none" stroke="black" points="458.25,-157.5 458.25,-180 560.25,-180 560.25,-157.5 458.25,-157.5"/>
<text xml:space="preserve" text-anchor="start" x="461.25" y="-164.7" font-family="Helvetica Neue,Helvetica,Arial,sans-serif" font-style="italic" font-size="14.00">output_state</text>
<polygon fill="none" stroke="black" points="300,-135 300,-157.5 339,-157.5 339,-135 300,-135"/>
<text xml:space="preserve" text-anchor="start" x="303" y="-142.2" font-family="Courier New,Courier,monospace" font-weight="bold" font-size="14.00">0xDE</text>
<polygon fill="none" stroke="black" points="339,-135 339,-157.5 458.25,-157.5 458.25,-135 339,-135"/>
<text xml:space="preserve" text-anchor="start" x="342" y="-143.25" font-family="Helvetica Neue,Helvetica,Arial,sans-serif" font-size="14.00">get_device_name</text>
<polygon fill="none" stroke="black" points="458.25,-135 458.25,-157.5 560.25,-157.5 560.25,-135 458.25,-135"/>
<text xml:space="preserve" text-anchor="start" x="461.25" y="-142.2" font-family="Helvetica Neue,Helvetica,Arial,sans-serif" font-style="italic" font-size="14.00">ASCII string</text>
<polygon fill="none" stroke="black" points="300,-112.5 300,-135 339,-135 339,-112.5 300,-112.5"/>
<text xml:space="preserve" text-anchor="start" x="303" y="-119.7" font-family="Courier New,Courier,monospace" font-weight="bold" font-size="14.00">0xDF</text>
<polygon fill="none" stroke="black" points="339,-112.5 339,-135 458.25,-135 458.25,-112.5 339,-112.5"/>
<text xml:space="preserve" text-anchor="start" x="342" y="-120.75" font-family="Helvetica Neue,Helvetica,Arial,sans-serif" font-size="14.00">get_fw_version</text>
<polygon fill="none" stroke="black" points="458.25,-112.5 458.25,-135 560.25,-135 560.25,-112.5 458.25,-112.5"/>
<text xml:space="preserve" text-anchor="start" x="461.25" y="-119.7" font-family="Helvetica Neue,Helvetica,Arial,sans-serif" font-style="italic" font-size="14.00">ASCII string</text>
<polygon fill="none" stroke="black" points="300,-90 300,-112.5 339,-112.5 339,-90 300,-90"/>
<text xml:space="preserve" text-anchor="start" x="303" y="-97.2" font-family="Courier New,Courier,monospace" font-weight="bold" font-size="14.00">0xE0</text>
<polygon fill="none" stroke="black" points="339,-90 339,-112.5 458.25,-112.5 458.25,-90 339,-90"/>
<text xml:space="preserve" text-anchor="start" x="342" y="-98.25" font-family="Helvetica Neue,Helvetica,Arial,sans-serif" font-size="14.00">get_hw_version</text>
<polygon fill="none" stroke="black" points="458.25,-90 458.25,-112.5 560.25,-112.5 560.25,-90 458.25,-90"/>
<text xml:space="preserve" text-anchor="start" x="461.25" y="-97.2" font-family="Helvetica Neue,Helvetica,Arial,sans-serif" font-style="italic" font-size="14.00">ASCII string</text>
<polygon fill="none" stroke="black" points="300,-67.5 300,-90 339,-90 339,-67.5 300,-67.5"/>
<text xml:space="preserve" text-anchor="start" x="303" y="-74.7" font-family="Courier New,Courier,monospace" font-weight="bold" font-size="14.00">0xE1</text>
<polygon fill="none" stroke="black" points="339,-67.5 339,-90 458.25,-90 458.25,-67.5 339,-67.5"/>
<text xml:space="preserve" text-anchor="start" x="342" y="-75.75" font-family="Helvetica Neue,Helvetica,Arial,sans-serif" font-size="14.00">ready_status</text>
<polygon fill="none" stroke="black" points="458.25,-67.5 458.25,-90 560.25,-90 560.25,-67.5 458.25,-67.5"/>
<text xml:space="preserve" text-anchor="start" x="461.25" y="-74.7" font-family="Helvetica Neue,Helvetica,Arial,sans-serif" font-style="italic" font-size="14.00">u8 ready</text>
<polygon fill="none" stroke="black" points="300,-45 300,-67.5 339,-67.5 339,-45 300,-45"/>
<text xml:space="preserve" text-anchor="start" x="303" y="-52.2" font-family="Courier New,Courier,monospace" font-weight="bold" font-size="14.00">0xE2</text>
<polygon fill="none" stroke="black" points="339,-45 339,-67.5 458.25,-67.5 458.25,-45 339,-45"/>
<text xml:space="preserve" text-anchor="start" x="342" y="-53.25" font-family="Helvetica Neue,Helvetica,Arial,sans-serif" font-size="14.00">push_vin_b</text>
<polygon fill="none" stroke="black" points="458.25,-45 458.25,-67.5 560.25,-67.5 560.25,-45 458.25,-45"/>
<text xml:space="preserve" text-anchor="start" x="461.25" y="-52.2" font-family="Helvetica Neue,Helvetica,Arial,sans-serif" font-style="italic" font-size="14.00">f32 LE</text>
<polygon fill="none" stroke="black" points="300,-22.5 300,-45 339,-45 339,-22.5 300,-22.5"/>
<text xml:space="preserve" text-anchor="start" x="303" y="-29.7" font-family="Courier New,Courier,monospace" font-weight="bold" font-size="14.00">0xE3</text>
<polygon fill="none" stroke="black" points="339,-22.5 339,-45 458.25,-45 458.25,-22.5 339,-22.5"/>
<text xml:space="preserve" text-anchor="start" x="342" y="-30.75" font-family="Helvetica Neue,Helvetica,Arial,sans-serif" font-size="14.00">push_max_current</text>
<polygon fill="none" stroke="black" points="458.25,-22.5 458.25,-45 560.25,-45 560.25,-22.5 458.25,-22.5"/>
<text xml:space="preserve" text-anchor="start" x="461.25" y="-29.7" font-family="Helvetica Neue,Helvetica,Arial,sans-serif" font-style="italic" font-size="14.00">f32 LE</text>
<polygon fill="none" stroke="black" points="300,0 300,-22.5 339,-22.5 339,0 300,0"/>
<text xml:space="preserve" text-anchor="start" x="303" y="-7.2" font-family="Courier New,Courier,monospace" font-weight="bold" font-size="14.00">0xFF</text>
<polygon fill="none" stroke="black" points="339,0 339,-22.5 458.25,-22.5 458.25,0 339,0"/>
<text xml:space="preserve" text-anchor="start" x="342" y="-8.25" font-family="Helvetica Neue,Helvetica,Arial,sans-serif" font-size="14.00">get_full_status</text>
<polygon fill="none" stroke="black" points="458.25,0 458.25,-22.5 560.25,-22.5 560.25,0 458.25,0"/>
<text xml:space="preserve" text-anchor="start" x="461.25" y="-7.2" font-family="Helvetica Neue,Helvetica,Arial,sans-serif" font-style="italic" font-size="14.00">full status blob</text>
</g>
<!-- frame&#45;&gt;rx -->
<g id="edge3" class="edge">
<title>frame&#45;&gt;rx</title>
<path fill="none" stroke="#1b5e20" d="M430.12,-428.01C430.12,-411.27 430.12,-390.56 430.12,-368.3"/>
<polygon fill="#1b5e20" stroke="#1b5e20" points="433.63,-368.41 430.13,-358.41 426.63,-368.41 433.63,-368.41"/>
<text xml:space="preserve" text-anchor="middle" x="453" y="-388.25" font-family="Helvetica Neue,Helvetica,Arial,sans-serif" font-size="10.00" fill="#1b5e20">DIR=0xF0</text>
</g>
<!-- magic -->
<g id="node4" class="node">
<title>magic</title>
<polygon fill="#e65100" stroke="none" points="617.88,-185 617.88,-206 886.38,-206 886.38,-185 617.88,-185"/>
<polygon fill="none" stroke="black" points="617.88,-185 617.88,-206 886.38,-206 886.38,-185 617.88,-185"/>
<text xml:space="preserve" text-anchor="start" x="625.75" y="-190.7" font-family="Helvetica Neue,Helvetica,Arial,sans-serif" font-weight="bold" font-size="14.00" fill="white">Session Magic &#160;(TX only, START=0xB0)</text>
<polygon fill="none" stroke="black" points="617.88,-151 617.88,-185 886.38,-185 886.38,-151 617.88,-151"/>
<text xml:space="preserve" text-anchor="start" x="623.5" y="-169.7" font-family="Helvetica Neue,Helvetica,Arial,sans-serif" font-size="14.00">DIR=0xF1 · START=0xB0 · </text>
<text xml:space="preserve" text-anchor="start" x="790" y="-169.7" font-family="Courier New,Courier,monospace" font-size="14.00">00 01 01 01</text>
<text xml:space="preserve" text-anchor="start" x="620.88" y="-155.7" font-family="Helvetica Neue,Helvetica,Arial,sans-serif" font-style="italic" font-size="14.00">Non&#45;standard — no CMD / LEN / CHKSUM</text>
</g>
<!-- frame&#45;&gt;magic -->
<g id="edge2" class="edge">
<title>frame&#45;&gt;magic</title>
<path fill="none" stroke="#e65100" d="M494.39,-428.06C524.31,-408.09 559.72,-382.78 589.12,-357 640.68,-311.81 693.02,-251.74 724.01,-214.36"/>
<polygon fill="#e65100" stroke="#e65100" points="726.43,-216.94 730.08,-207 721.02,-212.49 726.43,-216.94"/>
<text xml:space="preserve" text-anchor="middle" x="586.23" y="-393.5" font-family="Helvetica Neue,Helvetica,Arial,sans-serif" font-size="10.00" fill="#e65100">DIR=0xF1</text>
<text xml:space="preserve" text-anchor="middle" x="586.23" y="-383" font-family="Helvetica Neue,Helvetica,Arial,sans-serif" font-size="10.00" fill="#e65100">START=0xB0</text>
</g>
</g>
</svg>
